PathFileType	4	(X/Y/Z)	Kaydara																																																																																																																																																																																																																												
DataRate	CameraRate	NumFrames	NumMarkers	Units	OrigDataRate	OrigDataStartFrame	OrigNumFrames																																																																																																																																																																																																																								
60	60	4	74	mm	60	697	211																																																																																																																																																																																																																								
Frame#	Time	N_lasi			N_rasi			N_rpsi			N_lpsi			N_fneck			N_bneck			N_fhead			N_rhead			N_lhead			N_rshld			N_relbtop			N_relbext			N_relblow			N_rwrext			N_rwrtop			N_rwrlow			N_lshld			N_lelblow			N_lelbtop			N_lwrext			N_lwrtop			N_lwrlow			N_rtopleg			N_ltopleg			N_rkneefr			N_rkneebk			N_rkneeis			N_lkneefr			N_lknssbk			N_lkneeis			N_rankfr			N_rankis			N_rankbk			N_lankfr			N_lankbk			N_lankis			D_lasi			D_rasi			D_lpsi			D_fneck			D_bneck			D_fhead			D_rhead			D_lhead			D_rshld			D_relbtop			D_relbext			D_relblow			D_rwrext			D_rwrtop			D_rwrlow			D_lshld			D_lelbext			D_lelblow			D_lelbtop			D_lwrext			D_lwrtop			D_lwrlow			D_rtopleg			D_ltopleg			D_rkneefr			D_rkneebk			D_rkneeis			D_lkneefr			D_lknssbk			D_lkneeis			D_rankfr			D_rankis			D_rankbk			D_lankfr			D_lankbk			D_lankis			D_rpsi			N_lelbext		
		X1	Y1	Z1	X2	Y2	Z2	X3	Y3	Z3	X4	Y4	Z4	X5	Y5	Z5	X6	Y6	Z6	X7	Y7	Z7	X8	Y8	Z8	X9	Y9	Z9	X10	Y10	Z10	X11	Y11	Z11	X12	Y12	Z12	X13	Y13	Z13	X14	Y14	Z14	X15	Y15	Z15	X16	Y16	Z16	X17	Y17	Z17	X18	Y18	Z18	X19	Y19	Z19	X20	Y20	Z20	X21	Y21	Z21	X22	Y22	Z22	X23	Y23	Z23	X24	Y24	Z24	X25	Y25	Z25	X26	Y26	Z26	X27	Y27	Z27	X28	Y28	Z28	X29	Y29	Z29	X30	Y30	Z30	X31	Y31	Z31	X32	Y32	Z32	X33	Y33	Z33	X34	Y34	Z34	X35	Y35	Z35	X36	Y36	Z36	X37	Y37	Z37	X38	Y38	Z38	X39	Y39	Z39	X40	Y40	Z40	X41	Y41	Z41	X42	Y42	Z42	X43	Y43	Z43	X44	Y44	Z44	X45	Y45	Z45	X46	Y46	Z46	X47	Y47	Z47	X48	Y48	Z48	X49	Y49	Z49	X50	Y50	Z50	X51	Y51	Z51	X52	Y52	Z52	X53	Y53	Z53	X54	Y54	Z54	X55	Y55	Z55	X56	Y56	Z56	X57	Y57	Z57	X58	Y58	Z58	X59	Y59	Z59	X60	Y60	Z60	X61	Y61	Z61	X62	Y62	Z62	X63	Y63	Z63	X64	Y64	Z64	X65	Y65	Z65	X66	Y66	Z66	X67	Y67	Z67	X68	Y68	Z68	X69	Y69	Z69	X70	Y70	Z70	X71	Y71	Z71	X72	Y72	Z72	X73	Y73	Z73	X74	Y74	Z74
																																																																																																																																																																																																																															
27	11.6	-528.09071	1222.98149	-57.90971	-516.70326	1251.45401	-287.9484	-247.30532	1224.71992	-345.77358	-246.95183	1215.64186	26.83347	-372.51064	1604.3541	-161.25002	-232.63411	1663.55301	-161.7071	-429.73164	1802.94266	-151.58464	-244.42511	1771.24741	-225.71365	-281.05762	1771.96854	-74.00539	-257.87329	1620.56213	-385.18875	-246.00979	1507.54944	-660.01862	-335.53898	1509.07272	-641.62064	-269.38601	1580.47318	-603.32199	-372.69932	1827.42233	-663.05511	-370.96329	1814.57321	-615.92007	-408.60466	1783.1369	-606.72657	-290.55313	1532.87476	82.94	-313.58778	1231.45287	175.96115	-228.03751	1229.79797	157.87102	-232.28991	930.57617	257.67828	-275.6756	923.64365	276.51882	-298.01159	915.45502	228.2937	-424.46747	1049.50073	-421.81431	-353.46088	1003.45215	63.49009	-434.76234	561.89648	-247.81754	-330.21244	580.30315	-317.99488	-370.34798	564.29176	-155.93748	-379.80518	540.74436	-89.27472	-252.47198	554.93073	-33.57381	-258.79753	547.57469	-183.00951	-298.25304	140.6372	-268.49585	-298.76097	154.21619	-188.22605	-217.33324	142.75184	-214.99979	-332.14077	192.73638	-115.48427	-258.48053	184.95548	-73.91947	-294.48053	163.95548	-157.91947	-447.67807	1036.71471	1722.85767	-415.39478	1060.59853	1436.24634	-247.11239	1128.53462	1722.46002	-417.59953	1561.53839	1581.63895	-280.09686	1593.75381	1584.8027	-454.87701	1778.3313	1584.50836	-294.91024	1731.38702	1505.05417	-301.69956	1728.27209	1660.54016	-356.82522	1497.55676	1374.56848	-249.05455	1173.89954	1360.12375	-284.55324	1155.98198	1422.1933	-330.09274	1178.43941	1327.93488	-298.58652	925.23842	1344.85107	-349.40388	925.51537	1316.84433	-372.11063	941.4119	1363.7706	-323.00262	1559.96658	1785.62958	-398.18527	1436.32568	2040.31052	-326.54514	1511.71417	2035.68451	-318.59215	1432.76169	2050.2597	-382.72121	1491.75827	2290.05905	-411.31195	1523.20557	2279.61838	-452.74872	1498.76816	2262.5235	-332.47871	1005.81802	1400.24506	-305.11398	1008.16551	1785.76614	-371.26041	457.29439	1439.34235	-271.7701	490.6245	1407.80273	-276.71885	461.63414	1529.91608	-362.73251	453.65463	1760.43091	-248.86177	485.03376	1773.25272	-323.80245	441.99715	1669.07516	-323.83892	129.83171	1415.73227	-293.60611	127.7608	1479.85031	-243.4704	126.96228	1414.04083	-323.63956	134.47315	1789.3869	-250.95917	125.31781	1802.74857	-295.0701	122.40707	1730.23651	-220.61686	1145.7193	1505.51834	-310.73166	1152.1418	130.00152
28	11.617	-528.40263	1222.93961	-58.81223	-516.82098	1251.14578	-288.7937	-247.45651	1224.67422	-345.8889	-247.21773	1215.66566	26.5146	-373.2914	1604.25308	-161.41705	-233.44816	1663.48236	-162.00373	-430.18353	1802.90924	-151.67964	-244.78359	1771.18607	-225.62618	-281.57841	1771.88614	-73.89834	-258.6237	1621.23627	-384.98199	-245.89243	1508.62839	-660.00816	-335.32738	1509.78668	-641.50742	-269.32262	1581.44836	-603.40534	-373.24539	1828.39996	-664.09592	-371.59336	1815.6131	-616.94225	-409.27238	1784.08112	-607.70454	-288.51263	1535.06134	83.04156	-310.69256	1239.10278	186.78751	-225.57547	1236.01929	167.162	-228.60081	942.07291	280.92106	-271.74829	936.05446	300.18351	-294.56375	925.30113	252.75967	-424.13097	1049.23607	-422.23484	-353.71925	1003.52997	63.01097	-434.8418	561.85844	-248.1286	-330.21873	580.20363	-318.17846	-370.37151	564.26594	-156.19558	-379.93114	540.68665	-89.57435	-252.49952	554.92504	-33.80409	-258.82481	547.56123	-183.27898	-298.26025	140.55507	-268.47942	-298.77268	154.16682	-188.18501	-217.31421	142.7167	-215.02405	-332.18227	192.7334	-115.63776	-258.46643	184.94368	-74.03086	-294.46643	163.94368	-158.03086	-447.88311	1036.65176	1722.89581	-415.22163	1060.5455	1436.35513	-247.61105	1128.6055	1722.74261	-417.5008	1561.56891	1581.65863	-279.92252	1593.86627	1584.38873	-454.89037	1778.33664	1584.83582	-295.04196	1731.51947	1505.26108	-301.47678	1728.19183	1660.5484	-356.7823	1497.36038	1374.40781	-248.59533	1173.81607	1360.66025	-284.00623	1155.84328	1422.52533	-329.45786	1178.24562	1328.06244	-298.036	925.17166	1345.35477	-348.73505	925.33646	1317.11502	-371.59893	941.29807	1363.88947	-322.22046	1562.54654	1783.61694	-401.13823	1448.12378	2040.39322	-325.90321	1520.04242	2034.15329	-321.8631	1441.03027	2050.16678	-381.88442	1507.8653	2289.2778	-409.68822	1539.85367	2278.05664	-451.44581	1515.66589	2263.11569	-332.47871	1005.81802	1400.24506	-305.54611	1008.25943	1786.05316	-370.74162	457.37549	1439.56497	-271.29459	490.62202	1408.02963	-276.4941	461.60603	1530.17532	-362.85892	453.63659	1760.48355	-249.08924	485.02857	1773.59955	-323.80833	442.04155	1669.19479	-323.74428	129.88855	1415.70038	-293.58582	127.76613	1479.90952	-243.38787	126.94818	1414.12689	-323.7114	134.40753	1789.38568	-251.01864	125.28165	1802.75833	-295.04528	122.40606	1730.26505	-220.56376	1145.88966	1505.85846	-308.05304	1159.07753	140.06021
29	11.633	-528.71082	1223.0088	-59.67537	-516.86607	1250.85693	-289.49186	-247.57847	1224.69116	-346.14487	-247.44843	1215.75401	26.21103	-373.77464	1604.4104	-161.6021	-233.96469	1663.6702	-162.31842	-430.73429	1802.80563	-151.47874	-245.31107	1771.28479	-225.62174	-282.43681	1771.42365	-73.47783	-259.15606	1621.85501	-384.92611	-245.6958	1509.87213	-659.93034	-335.17002	1510.83496	-641.85349	-269.24677	1582.67319	-603.68469	-373.94196	1829.44656	-665.27504	-372.46071	1816.91589	-618.04951	-409.99489	1785.23972	-608.81508	-286.1994	1538.03253	83.01015	-307.90081	1248.29147	198.56968	-223.14135	1243.4433	177.32044	-224.89382	956.06033	306.05942	-268.2304	950.62515	325.3006	-290.32257	937.2554	278.16168	-424.02557	1048.95721	-422.56763	-353.94863	1003.62061	62.58368	-435.00381	561.81221	-248.41822	-330.29552	580.10406	-318.37862	-370.44956	564.2342	-156.38105	-379.96124	540.68218	-89.84002	-252.4902	554.97746	-34.11027	-258.91035	547.47097	-183.53662	-298.31656	140.46775	-268.44612	-298.80058	154.11727	-188.15969	-217.35191	142.66103	-215.02785	-332.19505	192.71755	-115.73921	-258.44307	184.93706	-74.15915	-294.44307	163.93706	-158.15915	-448.13019	1036.64314	1723.0043	-415.09624	1060.48256	1436.409	-247.79432	1128.85559	1723.11508	-417.31804	1561.6684	1581.71677	-279.71058	1594.00269	1583.75717	-454.87511	1778.37906	1585.01587	-295.21812	1731.81458	1504.68796	-301.27377	1728.27332	1660.28732	-356.78219	1497.15088	1374.19083	-248.29973	1173.76144	1360.86731	-283.67067	1155.74638	1422.61658	-329.0823	1178.10638	1328.03787	-297.4634	925.05661	1345.66025	-348.22792	925.18562	1317.40799	-371.2561	941.18271	1363.99597	-321.04885	1564.46884	1781.64352	-404.40601	1459.1069	2039.82178	-325.2541	1526.77155	2032.69867	-325.51456	1447.99911	2049.81522	-381.43913	1521.73431	2288.31528	-408.42926	1554.12216	2276.30737	-451.04561	1530.4776	2261.90018	-332.47871	1005.81802	1400.24506	-305.87172	1008.32466	1786.29868	-370.45586	457.37549	1439.71115	-270.97933	490.6691	1408.30673	-276.31254	461.55514	1530.44479	-362.97565	453.59596	1760.65094	-249.21844	485.05108	1773.84842	-323.75027	442.09644	1669.31717	-323.67817	129.95583	1415.73441	-293.58326	127.77333	1479.91776	-243.30666	126.90814	1414.26575	-323.75401	134.40166	1789.39209	-251.06089	125.31697	1802.8627	-295.03805	122.41762	1730.33188	-220.6035	1145.93269	1506.30432	-305.44012	1167.38388	151.03051
30	11.65	-529.04491	1223.09898	-60.37561	-516.87801	1250.68253	-290.08701	-247.6956	1224.72733	-346.58848	-247.67508	1215.89363	25.9335	-374.07337	1604.57214	-161.73456	-234.29672	1663.86215	-162.58053	-431.19484	1802.61169	-151.17373	-245.83994	1771.30661	-225.44594	-282.46256	1771.49399	-73.75381	-259.64867	1622.43988	-384.81251	-245.47752	1511.15936	-659.8127	-335.02396	1511.96884	-642.16316	-269.16573	1583.96225	-603.92586	-374.53419	1830.65598	-666.37444	-373.2148	1818.05649	-619.08989	-410.68645	1786.31607	-610.1107	-283.55906	1541.50284	82.90795	-305.44851	1259.06296	210.93817	-220.85262	1252.02637	187.81487	-221.15088	972.73796	332.72892	-264.77665	967.69753	351.33373	-285.68375	951.53816	304.58656	-424.08504	1048.71117	-422.85152	-354.14703	1003.65547	62.24549	-435.12501	561.74229	-248.6352	-330.36827	579.94884	-318.63768	-370.46749	564.19144	-156.63753	-379.95674	540.66776	-90.09691	-252.43116	555.03677	-34.44842	-258.96391	547.41245	-183.77817	-298.37378	140.39598	-268.37933	-298.84808	154.09735	-188.12481	-217.40747	142.62022	-215.02174	-332.15908	192.71812	-115.80858	-258.39546	184.9505	-74.27884	-294.39546	163.9505	-158.27884	-448.00137	1036.48453	1723.12912	-415.02045	1060.36354	1436.83121	-248.07121	1129.00726	1723.526	-416.96968	1561.77094	1581.77185	-279.4174	1594.03595	1583.36395	-454.76273	1778.43414	1585.03403	-295.27761	1731.99463	1504.19693	-300.97181	1728.44162	1659.84375	-356.86554	1496.8866	1373.90717	-248.09408	1173.64815	1360.86395	-283.44528	1155.58441	1422.59888	-328.83728	1177.89589	1328.00583	-297.03333	924.92424	1345.92392	-347.76039	924.96437	1317.68814	-370.96107	940.96527	1364.22241	-319.89706	1565.93674	1779.76425	-407.38674	1469.05426	2038.84613	-324.79485	1532.50336	2031.32751	-329.16298	1454.10522	2049.59564	-381.44604	1533.01483	2286.72455	-407.70939	1565.90485	2274.43039	-450.69969	1543.09082	2260.69153	-332.47871	1005.81802	1400.24506	-306.13636	1008.35663	1786.69479	-370.30098	457.34856	1439.74823	-270.76529	490.68676	1408.6467	-276.15461	461.55472	1530.65887	-363.05294	453.53458	1760.80948	-249.3058	485.05329	1774.08859	-323.72932	442.13989	1669.48486	-323.62907	129.97095	1415.7962	-293.56544	127.73767	1479.9379	-243.26365	126.86719	1414.46701	-323.8163	134.39585	1789.41589	-251.0955	125.27141	1802.91046	-295.00629	122.45378	1730.34012	-220.72186	1145.92758	1506.76132	-303.06959	1177.06116	162.46199
